# xmcd
# 
# Track frame offsets:
#     150
#     17833
#     37558
#     57558
#     78590
#     99177
#     117145
#     134427
#     151240
#     169774
#     185100
#     208687
# 
# Disc length: 2948
# 
# Revision: 2
# Processed by: cddbd v1.5.2PL0 Copyright (c) Steve Scherf et al.
# Submitted via: BonkEnc v1.0
# 
DISCID=980b820c
DTITLE=Os Carreteiros - AO VIVO
DYEAR=2003
DGENRE=Country
TTITLE0=Quebradeira
TTITLE1=Gaitero Socador
TTITLE2=Amor Pefeito
TTITLE3=Vanera Pras Meninas Carinhosas
TTITLE4=Me Bate Nega Véia
TTITLE5=Me Chamando Fale Que Eu Vou
TTITLE6=Socadão
TTITLE7=Aquela Dos Olhos Negros
TTITLE8=Malvado
TTITLE9=Ela Chorou de Amor
TTITLE10=Telefone Mudo
TTITLE11=Estrela de Ouro
EXTD=YEAR: 2003
EXTT0=
EXTT1=
EXTT2=
EXTT3=
EXTT4=
EXTT5=
EXTT6=
EXTT7=
EXTT8=
EXTT9=
EXTT10=
EXTT11=
PLAYORDER=
